<svg viewBox="0 0 24 24" xmlns="http://www.w3.org/2000/svg">
<path d="M15.2929 10.293L11.9999 13.586L8.70687 10.293C8.51137 10.0975 8.25587 10 7.99987 10C7.74387 10 7.48838 10.0975 7.29288 10.293C6.90237 10.6835 6.90237 11.3165 7.29288 11.707L11.2929 15.707C11.6834 16.0975 12.3169 16.0975 12.7069 15.707L16.7069 11.707C17.0974 11.3165 17.0974 10.6835 16.7069 10.293C16.3169 9.9025 15.6829 9.9025 15.2929 10.293Z" fill="#E7530E"/>
<path d="M12 2C6.486 2 2 6.486 2 12C2 17.514 6.486 22 12 22C17.514 22 22 17.514 22 12C22 6.486 17.514 2 12 2ZM12 20C7.589 20 4 16.411 4 12C4 7.589 7.589 4 12 4C16.411 4 20 7.589 20 12C20 16.411 16.411 20 12 20Z" fill="#E7530E"/>
</svg>
