<svg viewBox="0 0 20 20" xmlns="http://www.w3.org/2000/svg">
<path d="M9.99984 3.33341C6.31794 3.33341 3.33317 6.31818 3.33317 10.0001C3.33317 13.682 6.31794 16.6667 9.99984 16.6667C13.6817 16.6667 16.6665 13.682 16.6665 10.0001C16.6665 6.31818 13.6817 3.33341 9.99984 3.33341ZM1.6665 10.0001C1.6665 5.39771 5.39746 1.66675 9.99984 1.66675C14.6022 1.66675 18.3332 5.39771 18.3332 10.0001C18.3332 14.6025 14.6022 18.3334 9.99984 18.3334C5.39746 18.3334 1.6665 14.6025 1.6665 10.0001ZM13.8868 7.29391C14.2308 7.59967 14.2618 8.1264 13.956 8.47038L9.51157 13.4704C9.35343 13.6483 9.12676 13.7501 8.88873 13.7501C8.65069 13.7501 8.42402 13.6483 8.26589 13.4704L6.04366 10.9704C5.7379 10.6264 5.76888 10.0997 6.11287 9.79391C6.45685 9.48814 6.98358 9.51913 7.28934 9.86311L8.88873 11.6624L12.7103 7.36311C13.0161 7.01913 13.5428 6.98814 13.8868 7.29391Z" />
</svg>
