<svg viewBox="0 0 28 28" xmlns="http://www.w3.org/2000/svg"><path d="m23.3333 11.66665c0 6.4433-5.2233 11.6667-11.6666 11.6667-6.44336 0-11.6667-5.2234-11.6667-11.6667s5.22334-11.66665 11.6667-11.66665c6.4433 0 11.6666 5.22335 11.6666 11.66665zm-11.2486-3.0538c-1.1347.472-3.4026 1.4489-6.80372 2.9307-.55228.2196-.84159.4345-.86793.6445-.04451.3551.40012.4949 1.00558.6853.08236.0259.16769.0527.25517.0812.59568.1936 1.39698.4201 1.81354.4291.37786.0082.79956-.1476 1.26516-.4673 3.1778-2.1451 4.8181-3.2293 4.9211-3.2527.0727-.0165.1733-.0372.2416.0234.0682.0607.0615.1755.0542.2063-.044.1878-1.7893 1.8104-2.6925 2.6501-.2816.2617-.4813.4474-.5221.4898-.0915.095-.1847.1849-.2743.2712-.5534.5335-.9684.9336.023 1.5869.4764.3139.8576.5736 1.2379.8326.4154.2828.8297.5649 1.3657.9163.1366.0895.267.1825.394.2731.4834.3446.9177.6542 1.4542.6048.3117-.0287.6337-.3218.7973-1.1961.3865-2.0662 1.1462-6.543 1.3218-8.3878.0153-.1616-.004-.3684-.0196-.4592-.0155-.0908-.048-.2202-.166-.31598-.1398-.11342-.3556-.13734-.4521-.1357224-.4388.0078124-1.112.2419024-4.352 1.5895024z" fill-rule="evenodd" transform="translate(2.4 2.5)"/></svg>