<svg viewBox="0 0 28 28" xmlns="http://www.w3.org/2000/svg">
<path d="M22.6543 7H5.3457C4.32634 7 3.5 7.82634 3.5 8.8457V19.5098C3.5 20.5291 4.32634 21.3555 5.3457 21.3555H22.6543C23.6737 21.3555 24.5 20.5291 24.5 19.5098V8.8457C24.5 7.82634 23.6737 7 22.6543 7ZM21.1774 17.5571C20.9188 17.7771 20.5303 17.7459 20.3102 17.487L16.7592 13.3119L14.3049 14.7121C14.1159 14.8199 13.884 14.8199 13.6952 14.7121L11.2408 13.3119L7.68983 17.487C7.46982 17.7457 7.08144 17.7772 6.82259 17.557C6.56374 17.3369 6.53241 16.9486 6.75254 16.6898L10.1533 12.6914L7.13267 10.9681C6.83752 10.7998 6.73478 10.424 6.90311 10.1289C7.07152 9.83369 7.44722 9.73098 7.74237 9.89931C7.99269 10.0421 13.7177 13.3083 14 13.4694C14.2819 13.3085 20.0067 10.0425 20.2576 9.89931C20.5527 9.73094 20.9285 9.83369 21.0969 10.1289C21.2652 10.424 21.1625 10.7997 20.8673 10.9681L17.8467 12.6914L21.2475 16.6898C21.4676 16.9487 21.4363 17.3369 21.1774 17.5571Z" />
</svg>
