<svg viewBox="0 0 22 22" xmlns="http://www.w3.org/2000/svg"><path d="m15.5433.5c1.6415186 0 3.1295275.67233844 4.2076534 1.75559727 1.0800106 1.08515251 1.7490466 2.58282155 1.7490466 4.23184273 0 2.89442203-1.0973891 5.3833664-2.6414319 7.3864049-2.0814047 2.7001414-4.9747271 4.5261641-7.1479474 5.2715184-.2065645.0743729-.4549621.1034367-.7106207.1034367s-.5040562-.0290638-.7178025-.1059609c-2.16554903-.7426547-5.05794824-2.5712889-7.1392312-5.2712722-1.54480364-2.0040256-2.6429663-4.49298486-2.6429663-7.3841269 0-1.65253836.66786434-3.14934677 1.74654791-4.23315917 1.07836642-1.08349375 2.56745962-1.75428083 4.21019209-1.75428083 1.5939444 0 3.08455718.62175611 4.1882056 1.73483595.1247532.12581933.2431867.25652945.3551791.39150096.1118744-.13511327.2302463-.265751.3549312-.39150244 1.1036396-1.11308028 2.5943089-1.73483447 4.1882441-1.73483447z" transform="translate(0 1)"/></svg>