<svg viewBox="0 0 40 40" xmlns="http://www.w3.org/2000/svg"><g fill="none"><path d="m40.000011 20.0000461c0-11.04574-8.9543-20.0000461-20-20.0000461-11.04569 0-20.000011 8.9543061-20.000011 20.0000461 0 11.0456 8.954321 20 20.000011 20 11.0457 0 20-8.9544 20-20z" fill="#ff0209"/><path d="m28.490111 28.8580461c-.5959.0647-1.2058.0759-1.7905.0746105-4.5605-.0043105-9.1209-.0085105-13.68-.0113105-1.4349 0-2.9977-.0464-4.10652-.9585-1.24939-1.0302-1.50938-2.8164-1.61057-4.4326-.14053-2.2149-.15178-4.4368-.03654-6.6531.06325-1.217.17427-2.4636.69847-3.5654.37665-.7913 1.00485-1.5024 1.80876-1.8762.9346-.4343 1.9127-.357 2.919-.3584 2.4088-.0028 4.8176-.0042 7.2264-.007 2.5044-.0028 5.0102-.0042 7.5146-.007 1.1834 0 2.4538.0239 3.4193.7083 1.2466.8826 1.5853 2.562 1.7413 4.0812.2881 2.7981.2923 5.6258.0112 8.4239-.1166 1.1538-.3106 2.3737-1.0709 3.2492-.7533.8685-1.8705 1.203-3.0426 1.3309z" fill="#fff"/><path d="m24.078611 20.0000461-6.7964-3.9239v7.8477z" fill="#ff0209"/></g></svg>