<svg  viewBox="0 0 40 40" fill="none" xmlns="http://www.w3.org/2000/svg">
<path d="M0 19.2C0 10.149 0 5.62355 2.81177 2.81177C5.62355 0 10.149 0 19.2 0H20.8C29.851 0 34.3764 0 37.1882 2.81177C40 5.62355 40 10.149 40 19.2V20.8C40 29.851 40 34.3764 37.1882 37.1882C34.3764 40 29.851 40 20.8 40H19.2C10.149 40 5.62355 40 2.81177 37.1882C0 34.3764 0 29.851 0 20.8V19.2Z" fill="#0077FF"/>
<path d="M21.215 28.8C11.9219 28.8 6.62125 22.4937 6.40039 12H11.0555C11.2084 19.7021 14.6402 22.9646 17.3585 23.6372V12H21.7419V18.6426C24.4262 18.3568 27.2461 15.3297 28.1975 12H32.5809C31.8503 16.1033 28.7922 19.1303 26.6176 20.3748C28.7922 21.3838 32.2752 24.024 33.6004 28.8H28.7752C27.7389 25.6048 25.1568 23.1327 21.7419 22.7964V28.8H21.215Z" fill="white"/>
</svg>
