<svg viewBox="0 0 40 40" xmlns="http://www.w3.org/2000/svg"><g fill="none"><path d="m20.045517 0h-.0911c-11.02052 0-19.954417 8.93391-19.954417 19.95446v.0911c0 11.0205 8.933897 19.9544 19.954417 19.9544h.0911c11.0206 0 19.9545-8.9339 19.9545-19.9544v-.0911c0-11.02055-8.9339-19.95446-19.9545-19.95446z" fill="#00b0f2"/><path d="m7.575857 19.31816c.05606-.028.11214-.0546.1668-.0798.95014-.4401 1.91286-.8521 2.87426-1.2641.0518 0 .1387-.0603.1878-.0799.0742-.0322.1485-.063.2228-.0953l.4274-.1836c.2859-.1219.5704-.2438.8563-.3657.5703-.2439 1.1407-.4877 1.7111-.733 1.1407-.4876 2.2829-.9767 3.4236-1.4644s2.2829-.9768 3.4236-1.4645 2.2829-.9767 3.4236-1.4644 2.2829-.9768 3.4236-1.4645c.2537-.1093.5283-.2719.8002-.3195.2284-.0406.4512-.1191.6811-.1626.4358-.0826.9165-.1163 1.3341.0645.1443.0631.2775.1513.3882.2621.5297.5241.4554 1.3845.3433 2.1217-.7806 5.1375-1.5611 10.2764-2.3431 15.4139-.1065.7049-.2523 1.4785-.8086 1.9241-.4709.377-1.1408.419-1.7223.2593-.5816-.1612-1.0945-.4989-1.5976-.8311-2.0867-1.3817-4.1748-2.7635-6.2614-4.1453-.4961-.3279-1.0483-.7567-1.0427-1.3523.0028-.3588.2172-.6783.4359-.9628 1.8134-2.3655 4.4298-3.9911 6.3763-6.2474.2747-.3181.4905-.8927.1135-1.0763-.2242-.1093-.4821.0393-.6867.1808-2.5729 1.7868-5.1445 3.575-7.7174 5.3618-.8395.5829-1.7195 1.1827-2.7314 1.3257-.9053.1289-1.8162-.1234-2.692-.3812-.7344-.2158-1.46731-.4372-2.19744-.6657-.38819-.1205-.78899-.2508-1.08889-.5241s-.47224-.7329-.29146-1.0973c.11351-.2284.33353-.3728.56476-.4905z" fill="#fefffc"/></g></svg>