<svg viewBox="0 0 40 40" xmlns="http://www.w3.org/2000/svg">
<path d="M39.9972 20.0007C39.9972 30.1019 32.5098 38.4529 22.7831 39.808C21.8736 39.9341 20.9431 40 19.9986 40C18.9084 40 17.8377 39.9131 16.7951 39.745C7.27298 38.2118 0 29.9548 0 20.0007C0 8.95491 8.9546 0 20 0C31.0454 0 40 8.95491 40 20.0007H39.9972Z" fill="#415174"/>
<path d="M22.7832 16.06V20.4169H28.1728L27.3194 26.2859H22.7832V39.808C21.8738 39.9341 20.9433 40 19.9988 40C18.9085 40 17.8379 39.9131 16.7953 39.7449V26.2859H11.8247V20.4169H16.7953V15.086C16.7953 11.7787 19.4761 9.09644 22.7846 9.09644V9.09924C22.7944 9.09924 22.8028 9.09644 22.8127 9.09644H28.1742V14.1723H24.6708C23.6296 14.1723 22.7846 15.0173 22.7846 16.0586L22.7832 16.06Z" fill="#fff" />
</svg>
