<svg viewBox="0 0 40 40" xmlns="http://www.w3.org/2000/svg">
<path d="M20.0455 0H19.9545C8.93392 0 0 8.93392 0 19.9545V20.0455C0 31.0661 8.93392 40 19.9545 40H20.0455C31.0661 40 40 31.0661 40 20.0455V19.9545C40 8.93392 31.0661 0 20.0455 0Z" fill="white"/>
<path d="M26.1886 8.13794H13.8115C10.3921 8.13794 7.61035 10.9197 7.61035 14.3391V25.6624C7.61035 29.0818 10.3921 31.8635 13.8115 31.8635H26.1886C29.608 31.8635 32.3898 29.0818 32.3898 25.6624V14.3391C32.3898 10.9197 29.608 8.13794 26.1886 8.13794ZM9.79793 14.3391C9.79793 12.1263 11.5987 10.3255 13.8115 10.3255H26.1886C28.4014 10.3255 30.2022 12.1263 30.2022 14.3391V25.6624C30.2022 27.8752 28.4014 29.676 26.1886 29.676H13.8115C11.5987 29.676 9.79793 27.8752 9.79793 25.6624V14.3391Z" fill="#415174" />
<path d="M20.0006 25.7675C23.1803 25.7675 25.7687 23.1805 25.7687 19.9993C25.7687 16.8182 23.1817 14.2312 20.0006 14.2312C16.8194 14.2312 14.2324 16.8182 14.2324 19.9993C14.2324 23.1805 16.8194 25.7675 20.0006 25.7675ZM20.0006 16.4202C21.9751 16.4202 23.5811 18.0262 23.5811 20.0007C23.5811 21.9753 21.9751 23.5813 20.0006 23.5813C18.026 23.5813 16.42 21.9753 16.42 20.0007C16.42 18.0262 18.026 16.4202 20.0006 16.4202Z" fill="#415174" />
<path d="M26.3022 15.1632C27.1584 15.1632 27.8563 14.4667 27.8563 13.6091C27.8563 12.7514 27.1598 12.0549 26.3022 12.0549C25.4445 12.0549 24.748 12.7514 24.748 13.6091C24.748 14.4667 25.4445 15.1632 26.3022 15.1632Z" fill="#415174" />
</svg>
