<svg viewBox="0 0 40 40" xmlns="http://www.w3.org/2000/svg">
<path d="M20.0456 0H19.9544C8.9339 0 0 8.93392 0 19.9545V20.0455C0 31.0661 8.9339 40 19.9544 40H20.0456C31.0661 40 40 31.0661 40 20.0455V19.9545C40 8.93392 31.0661 0 20.0456 0Z" fill="#415174"/>
<path d="M7.57586 19.3183C7.63192 19.2903 7.688 19.2637 7.74265 19.2384C8.6928 18.7984 9.65556 18.3864 10.6169 17.9744C10.6688 17.9744 10.7556 17.9141 10.8047 17.8945C10.879 17.8623 10.9532 17.8314 11.0275 17.7992C11.1705 17.7375 11.3134 17.6773 11.4549 17.6156C11.7408 17.4937 12.0253 17.3718 12.3112 17.2498L14.0223 16.5169C15.163 16.0292 16.3052 15.5401 17.4459 15.0525C18.5866 14.5648 19.7288 14.0757 20.8695 13.588C22.0102 13.1003 23.1524 12.6112 24.2931 12.1236C25.4338 11.6359 26.576 11.1468 27.7167 10.6591C27.9704 10.5498 28.2451 10.3872 28.5169 10.3396C28.7454 10.2989 28.9682 10.2205 29.198 10.177C29.6338 10.0943 30.1145 10.0607 30.5321 10.2415C30.6765 10.3045 30.8096 10.3928 30.9203 10.5035C31.45 11.0277 31.3758 11.8881 31.2636 12.6252C30.4831 17.7628 29.7025 22.9017 28.9205 28.0392C28.814 28.7441 28.6683 29.5177 28.1119 29.9633C27.641 30.3403 26.9712 30.3823 26.3896 30.2226C25.808 30.0614 25.2951 29.7237 24.792 29.3915C22.7053 28.0098 20.6173 26.628 18.5306 25.2462C18.0345 24.9183 17.4824 24.4895 17.488 23.8939C17.4908 23.5351 17.7052 23.2156 17.9238 22.9311C19.7372 20.5656 22.3536 18.9399 24.3001 16.6837C24.5748 16.3656 24.7906 15.791 24.4136 15.6074C24.1894 15.4981 23.9315 15.6467 23.7269 15.7882C21.154 17.575 18.5824 19.3632 16.0095 21.1499C15.17 21.7329 14.29 22.3327 13.2782 22.4757C12.3729 22.6046 11.462 22.3523 10.5861 22.0945C9.85176 21.8787 9.1188 21.6572 8.38868 21.4288C8.00049 21.3083 7.59969 21.178 7.29979 20.9047C6.99989 20.6314 6.82754 20.1718 7.00832 19.8074C7.12184 19.579 7.34186 19.4346 7.57309 19.3169L7.57586 19.3183Z" fill="#fff" />
</svg>
