<svg viewBox="0 0 16 16" xmlns="http://www.w3.org/2000/svg">
<path d="M12.0001 9.33357C11.6062 9.33618 11.2178 9.42601 10.8628 9.59661C10.5077 9.76721 10.1949 10.0143 9.94677 10.3202L6.54677 8.75357C6.70662 8.26407 6.70662 7.73641 6.54677 7.24691L9.94677 5.68024C10.3478 6.16422 10.907 6.49096 11.5255 6.6028C12.1441 6.71464 12.7822 6.60439 13.3274 6.29151C13.8726 5.97863 14.2897 5.48322 14.5051 4.89273C14.7206 4.30224 14.7205 3.65463 14.505 3.06418C14.2894 2.47373 13.8722 1.9784 13.327 1.66562C12.7818 1.35283 12.1436 1.2427 11.5251 1.35465C10.9065 1.46661 10.3474 1.79345 9.94646 2.2775C9.54547 2.76155 9.32835 3.37169 9.33343 4.00024C9.33544 4.15906 9.35105 4.31742 9.3801 4.47357L5.8601 6.09357C5.48482 5.72662 5.0096 5.47858 4.49397 5.38052C3.97834 5.28247 3.44525 5.33875 2.96147 5.54233C2.47769 5.7459 2.06474 6.08772 1.77437 6.52495C1.48399 6.96217 1.3291 7.47537 1.3291 8.00024C1.3291 8.52511 1.48399 9.0383 1.77437 9.47553C2.06474 9.91276 2.47769 10.2546 2.96147 10.4582C3.44525 10.6617 3.97834 10.718 4.49397 10.62C5.0096 10.5219 5.48482 10.2739 5.8601 9.90691L9.3801 11.5269C9.35105 11.6831 9.33544 11.8414 9.33343 12.0002C9.33343 12.5277 9.48983 13.0432 9.78285 13.4818C10.0759 13.9203 10.4923 14.2621 10.9796 14.4639C11.4669 14.6658 12.0031 14.7186 12.5203 14.6157C13.0376 14.5128 13.5128 14.2588 13.8857 13.8859C14.2587 13.5129 14.5126 13.0378 14.6155 12.5205C14.7184 12.0032 14.6656 11.467 14.4638 10.9798C14.2619 10.4925 13.9202 10.076 13.4816 9.78299C13.0431 9.48997 12.5275 9.33357 12.0001 9.33357ZM12.0001 2.66691C12.2638 2.66691 12.5216 2.7451 12.7409 2.89161C12.9601 3.03812 13.131 3.24636 13.2319 3.48999C13.3329 3.73363 13.3593 4.00172 13.3078 4.26036C13.2564 4.519 13.1294 4.75658 12.9429 4.94305C12.7564 5.12952 12.5189 5.25651 12.2602 5.30795C12.0016 5.3594 11.7335 5.333 11.4899 5.23208C11.2462 5.13116 11.038 4.96026 10.8915 4.741C10.745 4.52173 10.6668 4.26395 10.6668 4.00024C10.6668 3.64662 10.8072 3.30748 11.0573 3.05743C11.3073 2.80738 11.6465 2.66691 12.0001 2.66691ZM4.0001 9.33357C3.73639 9.33357 3.47861 9.25537 3.25934 9.10887C3.04007 8.96236 2.86918 8.75412 2.76826 8.51048C2.66734 8.26685 2.64094 7.99876 2.69239 7.74012C2.74383 7.48148 2.87082 7.2439 3.05729 7.05743C3.24376 6.87096 3.48134 6.74397 3.73998 6.69253C3.99862 6.64108 4.26671 6.66748 4.51034 6.7684C4.75398 6.86932 4.96222 7.04021 5.10873 7.25948C5.25523 7.47874 5.33343 7.73653 5.33343 8.00024C5.33343 8.35386 5.19296 8.693 4.94291 8.94305C4.69286 9.1931 4.35372 9.33357 4.0001 9.33357ZM12.0001 13.3336C11.7364 13.3336 11.4786 13.2554 11.2593 13.1089C11.0401 12.9624 10.8692 12.7541 10.7683 12.5105C10.6673 12.2668 10.6409 11.9988 10.6924 11.7401C10.7438 11.4815 10.8708 11.2439 11.0573 11.0574C11.2438 10.871 11.4813 10.744 11.74 10.6925C11.9986 10.6411 12.2667 10.6675 12.5103 10.7684C12.754 10.8693 12.9622 11.0402 13.1087 11.2595C13.2552 11.4787 13.3334 11.7365 13.3334 12.0002C13.3334 12.3539 13.193 12.693 12.9429 12.943C12.6929 13.1931 12.3537 13.3336 12.0001 13.3336Z" fill="#1E1E1E"/>
</svg>
