<svg viewBox="0 0 24 24" xmlns="http://www.w3.org/2000/svg"><g fill="none" fill-rule="evenodd" stroke="#303030" stroke-linecap="round" stroke-linejoin="round" transform="translate(.85 1.8)"><path d="m7.71408 7.71427c2.13029 0 3.85719-1.72688 3.85719-3.85712 0-2.13025-1.7269-3.85715-3.85719-3.85715-2.13024 0-3.85714 1.7269-3.85714 3.85715 0 2.13024 1.7269 3.85712 3.85714 3.85712z"/><path d="m15.42857 20.57137h-15.42857v-1.7143c0-2.0459.81276-4.0081 2.25947-5.4548 1.4467-1.4467 3.40886-2.2594 5.45482-2.2594 2.04598 0 4.00808.8127 5.45478 2.2594 1.4468 1.4467 2.2595 3.4089 2.2595 5.4548z"/><path d="m14.57127-0c1.023 0 2.0041.40638 2.7274 1.12973.7234.72336 1.1298 1.70444 1.1298 2.72742 0 1.02297-.4064 2.00405-1.1298 2.72741-.7233.72335-1.7044 1.12971-2.7274 1.12971"/><path d="m17.31447 11.46847c1.4603.5556 2.7175 1.5414 3.6052 2.8271.8877 1.2856 1.3641 2.8106 1.3662 4.3729v1.9029h-2.5714"/></g></svg>